<mxfile host="65bd71144e">
    <diagram id="hU940_2fk4gjs9u8higD" name="Page-1">
        <mxGraphModel dx="3713" dy="2709" grid="1" gridSize="10" guides="1" tooltips="1" connect="1" arrows="1" fold="1" page="1" pageScale="1" pageWidth="850" pageHeight="1100" math="0" shadow="0">
            <root>
                <mxCell id="0"/>
                <mxCell id="1" parent="0"/>
                <mxCell id="226" style="edgeStyle=none;html=1;entryX=0;entryY=0.5;entryDx=0;entryDy=0;fontSize=72;fontColor=#000000;" edge="1" parent="1" source="149" target="220">
                    <mxGeometry relative="1" as="geometry"/>
                </mxCell>
                <mxCell id="149" value="&lt;font style=&quot;font-size: 72px;&quot;&gt;D&lt;/font&gt;" style="text;html=1;strokeColor=#2D7600;fillColor=#60a917;align=center;verticalAlign=middle;whiteSpace=wrap;rounded=0;fontColor=#ffffff;" vertex="1" parent="1">
                    <mxGeometry x="500" y="-210" width="130" height="110" as="geometry"/>
                </mxCell>
                <mxCell id="225" style="edgeStyle=none;html=1;fontSize=72;fontColor=#000000;exitX=1;exitY=0.5;exitDx=0;exitDy=0;entryX=0;entryY=0.5;entryDx=0;entryDy=0;" edge="1" parent="1" source="171" target="220">
                    <mxGeometry relative="1" as="geometry"/>
                </mxCell>
                <mxCell id="171" value="&lt;span style=&quot;font-size: 72px;&quot;&gt;E&lt;/span&gt;" style="text;html=1;strokeColor=#2D7600;fillColor=#60a917;align=center;verticalAlign=middle;whiteSpace=wrap;rounded=0;fontColor=#ffffff;" vertex="1" parent="1">
                    <mxGeometry x="510" y="-805" width="120" height="100" as="geometry"/>
                </mxCell>
                <mxCell id="229" style="edgeStyle=none;html=1;entryX=0;entryY=0.5;entryDx=0;entryDy=0;fontSize=72;fontColor=#000000;" edge="1" parent="1" source="172" target="220">
                    <mxGeometry relative="1" as="geometry"/>
                </mxCell>
                <mxCell id="172" value="&lt;span style=&quot;font-size: 72px;&quot;&gt;C&lt;/span&gt;" style="text;html=1;strokeColor=#2D7600;fillColor=#60a917;align=center;verticalAlign=middle;whiteSpace=wrap;rounded=0;fontColor=#ffffff;" vertex="1" parent="1">
                    <mxGeometry x="550" y="430" width="120" height="100" as="geometry"/>
                </mxCell>
                <mxCell id="198" style="edgeStyle=none;html=1;entryX=0;entryY=0.5;entryDx=0;entryDy=0;fontSize=72;" edge="1" parent="1" source="195" target="197">
                    <mxGeometry relative="1" as="geometry"/>
                </mxCell>
                <mxCell id="195" value="سال" style="shape=note;whiteSpace=wrap;html=1;backgroundOutline=1;darkOpacity=0.05;rounded=0;shadow=0;glass=0;sketch=0;strokeWidth=11;fontSize=72;fillColor=#60a917;size=38;fontColor=#ffffff;strokeColor=#2D7600;" vertex="1" parent="1">
                    <mxGeometry x="100" y="-515" width="150" height="170" as="geometry"/>
                </mxCell>
                <mxCell id="222" style="edgeStyle=none;html=1;entryX=0;entryY=0.5;entryDx=0;entryDy=0;fontSize=72;fontColor=#000000;exitX=1;exitY=0.5;exitDx=0;exitDy=0;" edge="1" parent="1" source="197" target="220">
                    <mxGeometry relative="1" as="geometry"/>
                </mxCell>
                <mxCell id="197" value="&lt;span style=&quot;font-size: 72px;&quot;&gt;AAAA&lt;/span&gt;" style="text;html=1;strokeColor=#2D7600;fillColor=#60a917;align=center;verticalAlign=middle;whiteSpace=wrap;rounded=0;fontColor=#ffffff;" vertex="1" parent="1">
                    <mxGeometry x="390" y="-480" width="300" height="100" as="geometry"/>
                </mxCell>
                <mxCell id="203" style="edgeStyle=none;html=1;entryX=0;entryY=0.5;entryDx=0;entryDy=0;fontSize=72;" edge="1" parent="1" source="201" target="202">
                    <mxGeometry relative="1" as="geometry"/>
                </mxCell>
                <mxCell id="237" value="" style="edgeStyle=none;html=1;fontSize=72;fontColor=#000000;entryX=0.875;entryY=0.5;entryDx=0;entryDy=0;entryPerimeter=0;" edge="1" parent="1" source="201" target="236">
                    <mxGeometry relative="1" as="geometry"/>
                </mxCell>
                <mxCell id="201" value="ترم" style="ellipse;shape=cloud;whiteSpace=wrap;html=1;rounded=0;shadow=0;glass=0;sketch=0;strokeWidth=11;fontSize=72;fillColor=#1ba1e2;fontColor=#ffffff;strokeColor=#006EAF;" vertex="1" parent="1">
                    <mxGeometry x="90" y="60" width="220" height="210" as="geometry"/>
                </mxCell>
                <mxCell id="223" style="edgeStyle=none;html=1;entryX=0;entryY=0.5;entryDx=0;entryDy=0;fontSize=72;fontColor=#000000;" edge="1" parent="1" source="202" target="220">
                    <mxGeometry relative="1" as="geometry"/>
                </mxCell>
                <mxCell id="202" value="&lt;font style=&quot;font-size: 72px;&quot;&gt;B&lt;/font&gt;" style="text;html=1;strokeColor=#2D7600;fillColor=#60a917;align=center;verticalAlign=middle;whiteSpace=wrap;rounded=0;fontColor=#ffffff;" vertex="1" parent="1">
                    <mxGeometry x="550" y="110" width="120" height="110" as="geometry"/>
                </mxCell>
                <mxCell id="230" style="edgeStyle=none;html=1;exitX=1;exitY=0.5;exitDx=0;exitDy=0;entryX=0;entryY=0.5;entryDx=0;entryDy=0;fontSize=72;fontColor=#000000;" edge="1" parent="1" source="205" target="172">
                    <mxGeometry relative="1" as="geometry"/>
                </mxCell>
                <mxCell id="235" value="" style="edgeStyle=none;html=1;fontSize=72;fontColor=#000000;entryX=1;entryY=0.5;entryDx=0;entryDy=0;" edge="1" parent="1" source="205" target="234">
                    <mxGeometry relative="1" as="geometry"/>
                </mxCell>
                <mxCell id="205" value="روز" style="ellipse;whiteSpace=wrap;html=1;rounded=0;shadow=0;glass=0;sketch=0;strokeWidth=11;fontSize=72;fillColor=#d80073;fontColor=#ffffff;strokeColor=#A50040;" vertex="1" parent="1">
                    <mxGeometry x="100" y="390" width="180" height="170" as="geometry"/>
                </mxCell>
                <mxCell id="214" value="کلاس" style="shape=callout;whiteSpace=wrap;html=1;perimeter=calloutPerimeter;rounded=0;shadow=0;glass=0;sketch=0;strokeWidth=11;fontSize=72;fillColor=#76608a;fontColor=#ffffff;strokeColor=#432D57;base=51;position2=0.42;size=70;position=0.5;" vertex="1" parent="1">
                    <mxGeometry x="80" y="-240" width="240" height="240" as="geometry"/>
                </mxCell>
                <mxCell id="216" style="edgeStyle=none;html=1;entryX=0;entryY=0.5;entryDx=0;entryDy=0;fontSize=72;exitX=0;exitY=0;exitDx=240;exitDy=85;exitPerimeter=0;" edge="1" parent="1" source="214" target="149">
                    <mxGeometry relative="1" as="geometry">
                        <mxPoint x="400" y="-214.04255319148933" as="sourcePoint"/>
                    </mxGeometry>
                </mxCell>
                <mxCell id="219" style="edgeStyle=none;html=1;entryX=0;entryY=0.5;entryDx=0;entryDy=0;fontSize=72;" edge="1" parent="1" source="218" target="171">
                    <mxGeometry relative="1" as="geometry"/>
                </mxCell>
                <mxCell id="239" value="" style="edgeStyle=none;html=1;fontSize=72;fontColor=#000000;entryX=0;entryY=0;entryDx=335;entryDy=140;entryPerimeter=0;" edge="1" parent="1" source="218" target="238">
                    <mxGeometry relative="1" as="geometry"/>
                </mxCell>
                <mxCell id="218" value="&lt;font color=&quot;#1a1a1a&quot;&gt;ساعت&lt;/font&gt;" style="shape=cube;whiteSpace=wrap;html=1;boundedLbl=1;backgroundOutline=1;darkOpacity=0.05;darkOpacity2=0.1;rounded=0;shadow=0;glass=0;sketch=0;strokeWidth=11;fontSize=72;fillColor=#d0cee2;size=25;strokeColor=#56517e;" vertex="1" parent="1">
                    <mxGeometry x="77.5" y="-830" width="195" height="150" as="geometry"/>
                </mxCell>
                <mxCell id="232" style="edgeStyle=none;html=1;entryX=0;entryY=0.5;entryDx=0;entryDy=0;fontSize=72;fontColor=#000000;" edge="1" parent="1" source="220" target="231">
                    <mxGeometry relative="1" as="geometry"/>
                </mxCell>
                <mxCell id="281" style="edgeStyle=none;html=1;entryX=0;entryY=0;entryDx=0;entryDy=0;fontSize=39;fontColor=none;" edge="1" parent="1" source="220" target="268">
                    <mxGeometry relative="1" as="geometry"/>
                </mxCell>
                <mxCell id="283" value="&lt;font style=&quot;font-size: 72px;&quot; color=&quot;#ffffff&quot;&gt;جستجو&lt;/font&gt;" style="edgeLabel;html=1;align=center;verticalAlign=middle;resizable=0;points=[];fontSize=39;fontColor=none;" vertex="1" connectable="0" parent="281">
                    <mxGeometry x="0.2432" y="-6" relative="1" as="geometry">
                        <mxPoint as="offset"/>
                    </mxGeometry>
                </mxCell>
                <mxCell id="220" value="&lt;p style=&quot;line-height: 100%;&quot;&gt;&lt;font color=&quot;#000000&quot;&gt;AAAABCDE&lt;/font&gt;&lt;/p&gt;" style="rounded=0;whiteSpace=wrap;html=1;shadow=0;glass=0;sketch=0;strokeWidth=11;fontSize=72;fillColor=#fff2cc;gradientColor=#ffd966;strokeColor=#d6b656;" vertex="1" parent="1">
                    <mxGeometry x="1050" y="-240" width="450" height="90" as="geometry"/>
                </mxCell>
                <mxCell id="243" value="" style="edgeStyle=none;html=1;fontSize=7;fontColor=none;" edge="1" parent="1" source="231" target="242">
                    <mxGeometry relative="1" as="geometry"/>
                </mxCell>
                <mxCell id="250" value="" style="edgeStyle=none;html=1;fontSize=7;fontColor=none;" edge="1" parent="1" source="231" target="249">
                    <mxGeometry relative="1" as="geometry"/>
                </mxCell>
                <mxCell id="231" value="&lt;p style=&quot;line-height: 100%;&quot;&gt;&lt;font color=&quot;#000000&quot;&gt;14031253&lt;/font&gt;&lt;/p&gt;" style="rounded=0;whiteSpace=wrap;html=1;shadow=0;glass=0;sketch=0;strokeWidth=11;fontSize=72;fillColor=#f5f5f5;gradientColor=#b3b3b3;strokeColor=#666666;" vertex="1" parent="1">
                    <mxGeometry x="1840" y="-250" width="450" height="90" as="geometry"/>
                </mxCell>
                <mxCell id="234" value="&lt;div style=&quot;text-align: justify;&quot;&gt;&lt;span style=&quot;background-color: initial;&quot;&gt;شنبه&amp;nbsp; &amp;nbsp;=&amp;nbsp; 0&lt;/span&gt;&lt;/div&gt;&lt;div style=&quot;text-align: justify;&quot;&gt;&lt;span style=&quot;background-color: initial;&quot;&gt;یکشنبه&amp;nbsp; =&amp;nbsp; 1&amp;nbsp;&lt;/span&gt;&lt;/div&gt;&lt;div style=&quot;text-align: justify;&quot;&gt;&lt;span style=&quot;background-color: initial;&quot;&gt;دوشنبه&amp;nbsp; = 2&lt;/span&gt;&lt;/div&gt;&lt;div style=&quot;text-align: justify;&quot;&gt;&lt;span style=&quot;background-color: initial;&quot;&gt;سه شنبه&amp;nbsp; = 3&amp;nbsp;&lt;/span&gt;&lt;/div&gt;&lt;div style=&quot;text-align: justify;&quot;&gt;&lt;span style=&quot;background-color: initial;&quot;&gt;چهارشنبه&amp;nbsp; = 4&lt;/span&gt;&lt;/div&gt;&lt;div style=&quot;text-align: justify;&quot;&gt;&lt;span style=&quot;background-color: initial;&quot;&gt;پنجشنبه&amp;nbsp; = 5&amp;nbsp;&amp;nbsp;&lt;/span&gt;&lt;/div&gt;" style="whiteSpace=wrap;html=1;fontSize=72;fillColor=#d80073;strokeColor=#A50040;fontColor=#ffffff;rounded=0;shadow=0;glass=0;sketch=0;strokeWidth=11;" vertex="1" parent="1">
                    <mxGeometry x="-770" y="480" width="560" height="550" as="geometry"/>
                </mxCell>
                <mxCell id="236" value="&lt;div style=&quot;text-align: justify;&quot;&gt;&lt;br&gt;&lt;/div&gt;&lt;div style=&quot;text-align: justify;&quot;&gt;&lt;span style=&quot;background-color: initial;&quot;&gt;ترم فرد = 1&lt;/span&gt;&lt;/div&gt;&lt;div style=&quot;text-align: justify;&quot;&gt;&lt;span style=&quot;background-color: initial;&quot;&gt;ترم زوج = 2&lt;/span&gt;&lt;/div&gt;&lt;div style=&quot;text-align: justify;&quot;&gt;&lt;span style=&quot;background-color: initial;&quot;&gt;تابستان = 3&lt;/span&gt;&lt;/div&gt;" style="ellipse;shape=cloud;whiteSpace=wrap;html=1;rounded=0;shadow=0;glass=0;sketch=0;strokeWidth=11;fontSize=72;fillColor=#1ba1e2;fontColor=#ffffff;strokeColor=#006EAF;align=center;" vertex="1" parent="1">
                    <mxGeometry x="-820" y="-160" width="520" height="540" as="geometry"/>
                </mxCell>
                <mxCell id="238" value="&lt;blockquote style=&quot;margin: 0 0 0 40px; border: none; padding: 0px;&quot;&gt;&lt;/blockquote&gt;&lt;span style=&quot;color: rgb(0, 0, 0); font-size: 31px; background-color: initial;&quot;&gt;&lt;div style=&quot;text-align: justify;&quot;&gt;&lt;span style=&quot;background-color: initial;&quot;&gt;07:30 - 09:00 = 1;&lt;/span&gt;&lt;/div&gt;&lt;/span&gt;&lt;span style=&quot;color: rgb(0, 0, 0); font-size: 31px; background-color: initial;&quot;&gt;&lt;div style=&quot;text-align: justify;&quot;&gt;&lt;span style=&quot;background-color: initial;&quot;&gt;09:10 - 10:20 = 2;&lt;/span&gt;&lt;/div&gt;&lt;/span&gt;&lt;span style=&quot;color: rgb(0, 0, 0); font-size: 31px; background-color: initial;&quot;&gt;&lt;div style=&quot;text-align: justify;&quot;&gt;&lt;span style=&quot;background-color: initial;&quot;&gt;10:30 - 11:55 = 3;&lt;/span&gt;&lt;/div&gt;&lt;/span&gt;&lt;span style=&quot;color: rgb(0, 0, 0); font-size: 31px; background-color: initial;&quot;&gt;&lt;div style=&quot;text-align: justify;&quot;&gt;&lt;span style=&quot;background-color: initial;&quot;&gt;14:00 - 15:30 = 4;&lt;/span&gt;&lt;/div&gt;&lt;/span&gt;&lt;span style=&quot;font-size: 31px; color: rgb(0, 0, 0); background-color: initial;&quot;&gt;&lt;div style=&quot;text-align: justify;&quot;&gt;&lt;span style=&quot;background-color: initial;&quot;&gt;15:45 - 17:15 = 5;&amp;nbsp;&lt;/span&gt;&lt;/div&gt;&lt;/span&gt;&lt;blockquote style=&quot;margin: 0px 0px 0px 40px; border: none; padding: 0px; line-height: 100%;&quot;&gt;&lt;/blockquote&gt;&lt;blockquote style=&quot;margin: 0px 0px 0px 40px; border: none; padding: 0px; line-height: 100%;&quot;&gt;&lt;/blockquote&gt;&lt;blockquote style=&quot;margin: 0px 0px 0px 40px; border: none; padding: 0px; line-height: 100%;&quot;&gt;&lt;/blockquote&gt;" style="shape=cube;whiteSpace=wrap;html=1;boundedLbl=1;backgroundOutline=1;darkOpacity=0.05;darkOpacity2=0.1;rounded=0;shadow=0;glass=0;sketch=0;strokeWidth=11;fontSize=72;fillColor=#d0cee2;size=20;strokeColor=#56517e;" vertex="1" parent="1">
                    <mxGeometry x="-730" y="-910" width="335" height="260" as="geometry"/>
                </mxCell>
                <mxCell id="240" style="edgeStyle=none;html=1;exitX=0;exitY=0;exitDx=325;exitDy=10;exitPerimeter=0;entryX=0;entryY=0;entryDx=335;entryDy=140;entryPerimeter=0;fontSize=7;fontColor=none;" edge="1" parent="1" source="238" target="238">
                    <mxGeometry relative="1" as="geometry"/>
                </mxCell>
                <mxCell id="246" value="" style="edgeStyle=none;html=1;fontSize=7;fontColor=none;" edge="1" parent="1" source="242" target="245">
                    <mxGeometry relative="1" as="geometry"/>
                </mxCell>
                <mxCell id="252" value="" style="edgeStyle=none;html=1;fontSize=7;fontColor=none;" edge="1" parent="1" source="242" target="251">
                    <mxGeometry relative="1" as="geometry"/>
                </mxCell>
                <mxCell id="242" value="&lt;p style=&quot;line-height: 100%;&quot;&gt;&lt;font color=&quot;#000000&quot;&gt;25&lt;/font&gt;&lt;/p&gt;" style="rounded=0;whiteSpace=wrap;html=1;shadow=0;glass=0;sketch=0;strokeWidth=11;fontSize=72;fillColor=#f5f5f5;gradientColor=#b3b3b3;strokeColor=#666666;" vertex="1" parent="1">
                    <mxGeometry x="2370" y="-250" width="450" height="90" as="geometry"/>
                </mxCell>
                <mxCell id="248" value="" style="edgeStyle=none;html=1;fontSize=7;fontColor=none;" edge="1" parent="1" source="245" target="247">
                    <mxGeometry relative="1" as="geometry"/>
                </mxCell>
                <mxCell id="254" value="" style="edgeStyle=none;html=1;fontSize=7;fontColor=none;" edge="1" parent="1" source="245" target="253">
                    <mxGeometry relative="1" as="geometry"/>
                </mxCell>
                <mxCell id="245" value="&lt;p style=&quot;line-height: 100%;&quot;&gt;&lt;font color=&quot;#000000&quot;&gt;14&lt;/font&gt;&lt;/p&gt;" style="rounded=0;whiteSpace=wrap;html=1;shadow=0;glass=0;sketch=0;strokeWidth=11;fontSize=72;fillColor=#f5f5f5;gradientColor=#b3b3b3;strokeColor=#666666;" vertex="1" parent="1">
                    <mxGeometry x="2900" y="-250" width="450" height="90" as="geometry"/>
                </mxCell>
                <mxCell id="256" value="" style="edgeStyle=none;html=1;fontSize=7;fontColor=none;" edge="1" parent="1" source="247" target="255">
                    <mxGeometry relative="1" as="geometry"/>
                </mxCell>
                <mxCell id="247" value="&lt;p style=&quot;line-height: 100%;&quot;&gt;&lt;font color=&quot;#000000&quot;&gt;1&lt;/font&gt;&lt;/p&gt;" style="rounded=0;whiteSpace=wrap;html=1;shadow=0;glass=0;sketch=0;strokeWidth=11;fontSize=72;fillColor=#f5f5f5;gradientColor=#b3b3b3;strokeColor=#666666;" vertex="1" parent="1">
                    <mxGeometry x="3430" y="-250" width="450" height="90" as="geometry"/>
                </mxCell>
                <mxCell id="266" style="edgeStyle=none;html=1;exitX=1;exitY=0.5;exitDx=0;exitDy=0;entryX=0;entryY=0.5;entryDx=0;entryDy=0;fontSize=7;fontColor=none;" edge="1" parent="1" source="249" target="251">
                    <mxGeometry relative="1" as="geometry"/>
                </mxCell>
                <mxCell id="249" value="&lt;p style=&quot;line-height: 100%;&quot;&gt;&lt;font color=&quot;#000000&quot;&gt;کد درس&lt;/font&gt;&lt;/p&gt;" style="rounded=0;whiteSpace=wrap;html=1;shadow=0;glass=0;sketch=0;strokeWidth=11;fontSize=72;fillColor=#f5f5f5;gradientColor=#b3b3b3;strokeColor=#666666;" vertex="1" parent="1">
                    <mxGeometry x="1840" y="-420" width="450" height="90" as="geometry"/>
                </mxCell>
                <mxCell id="265" style="edgeStyle=none;html=1;exitX=1;exitY=0.5;exitDx=0;exitDy=0;entryX=0;entryY=0.5;entryDx=0;entryDy=0;fontSize=7;fontColor=none;" edge="1" parent="1" source="251" target="253">
                    <mxGeometry relative="1" as="geometry"/>
                </mxCell>
                <mxCell id="251" value="&lt;p style=&quot;line-height: 100%;&quot;&gt;&lt;font color=&quot;#000000&quot;&gt;درس&lt;/font&gt;&lt;/p&gt;" style="rounded=0;whiteSpace=wrap;html=1;shadow=0;glass=0;sketch=0;strokeWidth=11;fontSize=72;fillColor=#f5f5f5;gradientColor=#b3b3b3;strokeColor=#666666;" vertex="1" parent="1">
                    <mxGeometry x="2370" y="-420" width="450" height="90" as="geometry"/>
                </mxCell>
                <mxCell id="264" style="edgeStyle=none;html=1;exitX=1;exitY=0.5;exitDx=0;exitDy=0;entryX=0;entryY=0.5;entryDx=0;entryDy=0;fontSize=7;fontColor=none;" edge="1" parent="1" source="253" target="255">
                    <mxGeometry relative="1" as="geometry"/>
                </mxCell>
                <mxCell id="253" value="&lt;p style=&quot;line-height: 100%;&quot;&gt;&lt;font color=&quot;#000000&quot;&gt;استاد&lt;/font&gt;&lt;/p&gt;" style="rounded=0;whiteSpace=wrap;html=1;shadow=0;glass=0;sketch=0;strokeWidth=11;fontSize=72;fillColor=#f5f5f5;gradientColor=#b3b3b3;strokeColor=#666666;" vertex="1" parent="1">
                    <mxGeometry x="2900" y="-420" width="450" height="90" as="geometry"/>
                </mxCell>
                <mxCell id="255" value="&lt;p style=&quot;line-height: 100%;&quot;&gt;&lt;font color=&quot;#000000&quot;&gt;آی دی&lt;/font&gt;&lt;/p&gt;" style="rounded=0;whiteSpace=wrap;html=1;shadow=0;glass=0;sketch=0;strokeWidth=11;fontSize=72;fillColor=#f5f5f5;gradientColor=#b3b3b3;strokeColor=#666666;" vertex="1" parent="1">
                    <mxGeometry x="3430" y="-420" width="450" height="90" as="geometry"/>
                </mxCell>
                <mxCell id="268" value="Tree Container" style="swimlane;startSize=20;horizontal=1;containerType=tree;rounded=0;shadow=0;glass=0;labelBackgroundColor=#18141D;sketch=0;strokeWidth=11;fontSize=7;fillColor=#ffcd28;gradientColor=#ffa500;strokeColor=#d79b00;" vertex="1" parent="1">
                    <mxGeometry x="1895" y="280" width="1930" height="800" as="geometry"/>
                </mxCell>
                <mxCell id="269" value="" style="edgeStyle=elbowEdgeStyle;elbow=vertical;sourcePerimeterSpacing=0;targetPerimeterSpacing=0;startArrow=none;endArrow=none;rounded=0;curved=0;fontSize=7;fontColor=none;" edge="1" parent="268" source="270" target="271">
                    <mxGeometry relative="1" as="geometry"/>
                </mxCell>
                <mxCell id="270" value="&lt;font style=&quot;font-size: 30px;&quot;&gt;SELECT *&amp;nbsp; FROM `user` WHERE SUBSTRING(`id`,-2,1) = 8;&lt;/font&gt;" style="whiteSpace=wrap;html=1;treeFolding=1;treeMoving=1;newEdgeStyle={&quot;edgeStyle&quot;:&quot;elbowEdgeStyle&quot;,&quot;startArrow&quot;:&quot;none&quot;,&quot;endArrow&quot;:&quot;none&quot;};rounded=0;shadow=0;glass=0;labelBackgroundColor=#18141D;sketch=0;strokeWidth=11;fontSize=7;fillColor=#f5f5f5;gradientColor=#b3b3b3;strokeColor=#666666;" vertex="1" parent="268">
                    <mxGeometry x="40" y="110" width="900" height="150" as="geometry"/>
                </mxCell>
                <mxCell id="271" value="&lt;font style=&quot;font-size: 38px;&quot;&gt;SELECT SUBSTRING(`id`,-3,3)&amp;nbsp; FROM `user`;&lt;/font&gt;" style="whiteSpace=wrap;html=1;treeFolding=1;treeMoving=1;newEdgeStyle={&quot;edgeStyle&quot;:&quot;elbowEdgeStyle&quot;,&quot;startArrow&quot;:&quot;none&quot;,&quot;endArrow&quot;:&quot;none&quot;};rounded=0;shadow=0;glass=0;labelBackgroundColor=#18141D;sketch=0;strokeWidth=11;fontSize=7;fillColor=#e6d0de;gradientColor=#d5739d;strokeColor=#996185;" vertex="1" parent="268">
                    <mxGeometry x="40" y="510" width="900" height="130" as="geometry"/>
                </mxCell>
                <mxCell id="273" value="" style="edgeStyle=elbowEdgeStyle;html=1;elbow=horizontal;startArrow=none;endArrow=none;" edge="1" source="270" target="274" parent="268">
                    <mxGeometry relative="1" as="geometry"/>
                </mxCell>
                <mxCell id="274" value="&lt;span style=&quot;font-size: 39px;&quot;&gt;&amp;nbsp;ردیفی در ستون آی دی رقم دوم از راست برابر 8 است را بر میگرداند&lt;/span&gt;" style="whiteSpace=wrap;html=1;treeFolding=1;treeMoving=1;newEdgeStyle={&quot;edgeStyle&quot;:&quot;elbowEdgeStyle&quot;,&quot;startArrow&quot;:&quot;none&quot;,&quot;endArrow&quot;:&quot;none&quot;};rounded=0;shadow=0;glass=0;labelBackgroundColor=#18141D;sketch=0;strokeWidth=11;fontSize=7;fillColor=#f5f5f5;gradientColor=#b3b3b3;strokeColor=#666666;" vertex="1" parent="268">
                    <mxGeometry x="990" y="110" width="700" height="150" as="geometry"/>
                </mxCell>
                <mxCell id="279" value="" style="edgeStyle=elbowEdgeStyle;elbow=vertical;sourcePerimeterSpacing=0;targetPerimeterSpacing=0;startArrow=none;endArrow=none;rounded=0;curved=0;fontSize=7;fontColor=none;exitX=1;exitY=0.5;exitDx=0;exitDy=0;" edge="1" target="280" source="271" parent="268">
                    <mxGeometry relative="1" as="geometry">
                        <mxPoint x="1100" y="460" as="sourcePoint"/>
                    </mxGeometry>
                </mxCell>
                <mxCell id="280" value="&lt;br&gt;&lt;span style=&quot;font-size: 39px;&quot;&gt;در ستون ای دی سه رقم از راست (شروع از رقم&amp;nbsp; سوم از راست) را برمیگرداند&amp;nbsp;&lt;/span&gt;" style="whiteSpace=wrap;html=1;treeFolding=1;treeMoving=1;newEdgeStyle={&quot;edgeStyle&quot;:&quot;elbowEdgeStyle&quot;,&quot;startArrow&quot;:&quot;none&quot;,&quot;endArrow&quot;:&quot;none&quot;};rounded=0;shadow=0;glass=0;labelBackgroundColor=#18141D;sketch=0;strokeWidth=11;fontSize=7;fillColor=#e6d0de;gradientColor=#d5739d;strokeColor=#996185;" vertex="1" parent="268">
                    <mxGeometry x="1010" y="510" width="680" height="130" as="geometry"/>
                </mxCell>
            </root>
        </mxGraphModel>
    </diagram>
</mxfile>